<svg xmlns="http://www.w3.org/2000/svg" viewBox="0 0 37.97 37.97"><defs><style>.cls-1{fill:#231f20;stroke:#000;stroke-miterlimit:10;}</style></defs><title>Icon_Close</title><g id="Layer_2" data-name="Layer 2"><g id="Layer_1-2" data-name="Layer 1"><path class="cls-1" d="M20.13,19,37.23,1.88a.8.8,0,0,0,0-1.14.8.8,0,0,0-1.14,0L19,17.84,1.88.74A.8.8,0,0,0,.74.74a.8.8,0,0,0,0,1.14L17.84,19,.74,36.09a.8.8,0,0,0,0,1.14.78.78,0,0,0,.57.24.8.8,0,0,0,.57-.24L19,20.13l17.1,17.1a.81.81,0,0,0,.57.24.78.78,0,0,0,.57-.24.8.8,0,0,0,0-1.14Z"/></g></g></svg>