<svg xmlns="http://www.w3.org/2000/svg" viewBox="0 0 37.97 37.97"><defs><style>.cls-1{fill:#231f20;stroke:#000;stroke-miterlimit:10;}</style></defs><title>Icon_NewWindow</title><g id="Layer_2" data-name="Layer 2"><g id="Layer_1-2" data-name="Layer 1"><path class="cls-1" d="M34.65.5H15.11a2.83,2.83,0,0,0-2.83,2.82v9h-9A2.82,2.82,0,0,0,.5,15.11V34.65a2.82,2.82,0,0,0,2.82,2.82H22.87a2.82,2.82,0,0,0,2.82-2.82v-9h9a2.82,2.82,0,0,0,2.82-2.82V3.32A2.82,2.82,0,0,0,34.65.5ZM24.07,34.65a1.2,1.2,0,0,1-1.2,1.2H3.32a1.2,1.2,0,0,1-1.2-1.2V15.11a1.21,1.21,0,0,1,1.2-1.21H22.87a1.21,1.21,0,0,1,1.2,1.21ZM35.85,22.87a1.2,1.2,0,0,1-1.2,1.2h-9v-9a2.82,2.82,0,0,0-2.82-2.82h-9v-9a1.21,1.21,0,0,1,1.21-1.2H34.65a1.2,1.2,0,0,1,1.2,1.2Z"/></g></g></svg>