<svg xmlns="http://www.w3.org/2000/svg" viewBox="0 0 37.55 37.97"><defs><style>.cls-1{fill:#231f20;stroke:#000;stroke-miterlimit:10;}</style></defs><title>Icon_Refresh</title><g id="Layer_2" data-name="Layer 2"><g id="Layer_1-2" data-name="Layer 1"><path class="cls-1" d="M36.24,18.39a.81.81,0,0,0-.81.81A16.65,16.65,0,1,1,27.07,4.75,16.91,16.91,0,0,1,32.39,9.6H24.87a.81.81,0,0,0,0,1.62H34a.81.81,0,0,0,.81-.81V1.31a.81.81,0,0,0-1.62,0V7.94A18.26,18.26,0,1,0,37.05,19.2.81.81,0,0,0,36.24,18.39Z"/></g></g></svg>